<?xml version="1.0" encoding="utf-8"?>
<svg version="1.1" id="Layer_1" xmlns="http://www.w3.org/2000/svg" x="0" y="0" viewBox="0 0 200 200" xml:space="preserve">
  <style>
    .st1{fill:#fff}.st2{fill:#fefffe}
  </style>
  <path d="M200.07-.12c0 66.4 0 132.79.01 199.19 0 .54-.11.65-.65.65-66.4-.02-132.8-.01-199.21-.01V.76c0-.87 0-.87.87-.87 66.33-.01 132.65-.01 198.98-.01zM81.43 131.28v.09c1.13 0 2.26.02 3.4 0 2.15-.04 4.3.15 6.44-.27 8.27-1.62 14.38-9.56 12.67-18.61-1.23-6.53-5.27-10.72-11.64-12.61-.58-.17-.53-.35-.34-.79 1.17-2.7 1.51-5.52.88-8.39-1.33-5.98-5-9.87-10.95-11.2-5.92-1.32-10.89.63-14.64 5.44-1.51 1.94-2.39 4.18-2.67 6.63-.06.57-.2.87-.86.78-.64-.09-1.29.04-1.91.18-4.3.91-7.69 4.21-8.39 8.27-.79 4.65.75 8.37 4.65 11.06.39.27.36.39.09.72-4.79 5.62-3.02 14.19 3.58 17.52 2.05 1.04 4.23 1.2 6.46 1.2 4.39-.02 8.81-.02 13.23-.02zm17.65 44.57h48.35c1.06 0 1.06 0 1.06-1.02v-4.73c0-1.16 0-1.16-1.13-1.16H50.66c-.81 0-.88.07-.88.87v4.99c0 1.04 0 1.04 1.02 1.04 16.09.01 32.18.01 48.28.01zm.04-11.86h48.35c.97 0 1.01-.04 1.01-1.02v-4.79c0-1.11 0-1.12-1.11-1.12H50.93c-.13 0-.27.01-.4 0-.58-.05-.78.23-.77.79.02 1.69.01 3.37.01 5.06 0 1.08 0 1.08 1.06 1.08h48.29zM35.02 31.58c.13-2.6.27-5.1.36-7.6.02-.55.17-.69.72-.69 3.44.03 6.88 0 10.32.02.5 0 .64-.12.63-.63-.03-1.69-.03-3.37 0-5.06.01-.49-.11-.64-.62-.64-5.48.02-10.97.02-16.45 0-.46 0-.59.11-.6.58-.03 2.48-.09 4.97-.15 7.45-.11 4.39-.23 8.78-.36 13.17-.02.5.19.58.62.57 1.51-.02 3.02-.01 4.53-.01 1.09 0 1.09 0 1.43-1 .05-.15.11-.29.17-.43.67-1.53 1.67-2.15 3.22-2.01 1.32.11 2.05.85 2.42 2.5.61 2.74.41 5.52.3 8.28-.03.86-.13 1.72-.45 2.54-.51 1.3-1.31 1.81-2.73 1.75-1.22-.06-1.97-.69-2.33-1.99-.35-1.23-.43-2.49-.41-3.75 0-.34-.05-.52-.47-.52-2.09.02-4.17.01-6.26 0-.3 0-.45.07-.43.41.1 1.61.17 3.23.5 4.82.72 3.46 2.83 5.57 6.25 6.22 1.76.34 3.52.34 5.3.14 3.72-.43 6.31-2.69 7.25-6.32.81-3.11.89-6.27.74-9.45-.09-1.86-.42-3.7-1.14-5.43-.93-2.22-2.37-3.9-4.81-4.47-1.4-.33-2.82-.26-4.22.04-1.19.25-2.31.69-3.33 1.51zm-18.01-6.97v.84c0 9.7 0 19.4-.01 29.1 0 .5.1.68.64.67 2.04-.03 4.08-.02 6.13-.01.4 0 .58-.05.58-.53-.01-12.39-.01-24.77 0-37.16 0-.39-.07-.55-.5-.54-1.6.03-3.2.01-4.8.01-.22 0-.42 0-.61.18-1.89 1.69-4.15 2.78-6.44 3.79-.39.17-.52.37-.51.79.02 1.42.02 2.84 0 4.26-.01.51.1.58.6.41 1.61-.58 3.24-1.12 4.92-1.81zm103.78 91.19c-.76.06-1.67.13-2.55.37-1.95.53-3.61 1.55-5.08 2.91-.44.41-.53 1.46-.14 1.83.48.45.97.27 1.44-.08.27-.2.58-.31.9-.41 1.83-.57 3.68-.53 5.52-.18 2.91.55 5.39 1.96 7.55 3.95.47.43.97.56 1.52.3.29-.14.51-.41.77-.63 3.1-2.68 6.64-4.12 10.79-3.82 1.04.07 2.06.25 2.96.87.45.32.95.4 1.39-.03.36-.35.36-1.22-.02-1.6-2.35-2.31-5.13-3.61-8.47-3.46-2.76.12-5.2 1.19-7.42 2.78-.41.29-.64.32-1.06.01-2.38-1.7-5-2.75-8.1-2.81zM76.45 143c0 2.33.01 4.66-.01 6.99-.01.59.17.84.8.83 1.75-.03 3.51-.04 5.26 0 .66.01.85-.26.85-.86-.01-4.64-.01-9.27 0-13.91 0-.64-.26-.85-.88-.84-1.71.03-3.42.01-5.12.01-.82 0-.88.07-.89.86-.01 2.31-.01 4.62-.01 6.92zm32.97-51.76c-.5-.03-1.42.14-2.31.43-1.62.52-2.97 1.47-4.14 2.69-.42.44-.45 1.35-.05 1.71.49.45.95.28 1.42-.11.38-.32.86-.45 1.34-.56 3.66-.83 6.87.18 9.79 2.39 1.08.82 1.4.82 2.36-.15 1.66-1.68 3.6-2.88 5.92-3.38 1.75-.38 3.51-.54 5.18.36.43.23.87.16 1.19-.25.29-.39.21-1.18-.18-1.52-1.5-1.28-3.19-2.16-5.17-2.38-3.03-.34-5.61.74-7.93 2.57-.34.27-.56.32-.95.08-1.85-1.16-3.84-1.85-6.47-1.88zM127 79.11c-1.27-.02-2.45.32-3.58.88-.51.26-.81 1-.59 1.47.26.56.75.57 1.25.43.48-.14.97-.11 1.45-.03 2.68.48 4.62 2.01 6.04 4.27.58.92.91 1.03 1.91.56 1.64-.76 3.35-1.13 5.16-.9 1.26.17 2.48.48 3.43 1.41.48.47 1 .61 1.4.31.39-.3.5-1.02.21-1.52-.49-.82-1.07-1.58-1.82-2.19-2.32-1.88-4.92-2.01-7.65-1.2-.45.13-.69.08-1-.29-1.62-1.91-3.6-3.17-6.21-3.2z" fill="#5eb130"/>
  <path class="st1" d="M200.07-.12H1.1c-.87 0-.87 0-.87.87V199.7c-.04-.03-.14.07-.13-.07.01-.18 0-.36 0-.53C.1 132.85.1 66.6.09.35c0-.5.11-.61.61-.61 66.26.01 132.52.01 198.77.02.19-.01.45-.16.6.12z"/>
  <path class="st1" d="M81.43 131.28H68.18c-2.23 0-4.41-.16-6.46-1.2-6.6-3.33-8.37-11.9-3.58-17.52.28-.32.3-.45-.09-.72-3.9-2.69-5.44-6.42-4.65-11.06.69-4.06 4.09-7.36 8.39-8.27.63-.13 1.28-.27 1.91-.18.66.09.8-.21.86-.78.28-2.45 1.16-4.69 2.67-6.63 3.75-4.81 8.72-6.76 14.64-5.44 5.95 1.32 9.62 5.22 10.95 11.2.64 2.87.29 5.69-.88 8.39-.19.44-.24.62.34.79 6.37 1.89 10.41 6.09 11.64 12.61 1.7 9.06-4.4 16.99-12.67 18.61-2.14.42-4.29.23-6.44.27-1.13.02-2.26 0-3.4 0 .02-.01.02-.04.02-.07z"/>
  <path class="st2" d="M99.08 175.85H50.79c-1.02 0-1.02 0-1.02-1.04v-4.99c0-.8.07-.87.88-.87H147.35c1.13 0 1.13 0 1.13 1.16v4.73c0 1.02 0 1.02-1.06 1.02-16.11-.01-32.23-.01-48.34-.01z"/>
  <path class="st1" d="M99.12 163.99H50.83c-1.06 0-1.06 0-1.06-1.08 0-1.69.01-3.37-.01-5.06-.01-.57.19-.84.77-.79.13.01.27 0 .4 0h96.44c1.11 0 1.11 0 1.11 1.12v4.79c0 .97-.04 1.02-1.01 1.02H99.12z"/>
  <path class="st2" d="M35.02 31.58c1.02-.82 2.14-1.26 3.34-1.51 1.41-.29 2.82-.36 4.22-.04 2.44.57 3.88 2.25 4.81 4.47.73 1.74 1.05 3.57 1.14 5.43.15 3.17.07 6.34-.74 9.45-.94 3.64-3.54 5.89-7.25 6.32-1.77.21-3.54.2-5.3-.14-3.43-.65-5.53-2.76-6.25-6.22-.33-1.59-.41-3.2-.5-4.82-.02-.34.13-.41.43-.41 2.09.01 4.17.01 6.26 0 .41 0 .47.18.47.52-.01 1.27.07 2.53.41 3.75.36 1.3 1.12 1.93 2.33 1.99 1.41.07 2.21-.45 2.73-1.75.32-.82.42-1.67.45-2.54.1-2.77.31-5.54-.3-8.28-.37-1.65-1.1-2.39-2.42-2.5-1.55-.13-2.55.49-3.22 2.01-.06.14-.12.29-.17.43-.34 1-.34 1-1.43 1-1.51 0-3.02-.01-4.53.01-.43.01-.64-.07-.62-.57.13-4.39.25-8.78.36-13.17.06-2.48.12-4.97.15-7.45.01-.47.14-.59.6-.58 5.48.02 10.97.02 16.45 0 .51 0 .63.15.62.64-.03 1.69-.03 3.37 0 5.06.01.5-.14.63-.63.63-3.44-.02-6.88 0-10.32-.02-.54 0-.7.14-.72.69-.1 2.5-.24 5-.37 7.6z"/>
  <path class="st1" d="M17.01 24.61c-1.68.69-3.31 1.23-4.93 1.82-.49.18-.61.1-.6-.41.02-1.42.02-2.84 0-4.26-.01-.42.13-.62.51-.79 2.29-1.01 4.55-2.1 6.44-3.79.19-.17.39-.18.61-.18 1.6 0 3.2.02 4.8-.01.43-.01.5.15.5.54-.01 12.39-.01 24.77 0 37.16 0 .48-.18.53-.58.53-2.04-.01-4.09-.03-6.13.01-.53.01-.63-.17-.63-.67.01-9.7.01-19.4.01-29.1v-.85z"/>
  <path class="st2" d="M120.79 115.8c3.1.06 5.72 1.11 8.09 2.82.42.31.65.28 1.06-.01 2.22-1.6 4.65-2.66 7.42-2.78 3.34-.15 6.13 1.15 8.47 3.46.39.38.38 1.24.02 1.6-.44.44-.94.35-1.39.03-.89-.63-1.92-.8-2.96-.87-4.15-.3-7.69 1.14-10.79 3.82-.25.22-.48.5-.77.63-.55.26-1.05.13-1.52-.3-2.16-1.99-4.64-3.4-7.55-3.95-1.85-.35-3.7-.39-5.52.18-.32.1-.63.21-.9.41-.46.35-.96.53-1.44.08-.39-.37-.3-1.42.14-1.83 1.47-1.36 3.13-2.38 5.08-2.91.89-.26 1.8-.32 2.56-.38zM76.45 143v-6.92c0-.8.07-.86.89-.86 1.71 0 3.42.02 5.12-.01.62-.01.88.2.88.84-.01 4.64-.01 9.27 0 13.91 0 .61-.18.88-.85.86-1.75-.04-3.51-.03-5.26 0-.63.01-.8-.23-.8-.83.04-2.33.02-4.66.02-6.99zM109.42 91.24c2.63.03 4.62.72 6.45 1.87.39.25.61.2.95-.08 2.32-1.84 4.9-2.91 7.93-2.57 1.98.22 3.67 1.1 5.17 2.38.4.34.48 1.14.18 1.52-.31.42-.75.49-1.19.25-1.68-.9-3.44-.74-5.18-.36-2.31.5-4.26 1.7-5.92 3.38-.96.97-1.28.97-2.36.15-2.91-2.21-6.13-3.22-9.79-2.39-.47.11-.96.24-1.34.56-.46.39-.93.55-1.42.11-.39-.36-.37-1.27.05-1.71 1.17-1.22 2.51-2.17 4.14-2.69.91-.27 1.83-.44 2.33-.42zM127 79.11c2.61.02 4.59 1.29 6.22 3.21.31.37.55.42 1 .29 2.73-.81 5.34-.68 7.65 1.2.75.61 1.33 1.36 1.82 2.19.29.49.18 1.22-.21 1.52-.4.3-.92.16-1.4-.31-.95-.93-2.17-1.24-3.43-1.41-1.81-.24-3.52.14-5.16.9-1 .46-1.33.36-1.91-.56-1.42-2.26-3.37-3.79-6.04-4.27-.48-.09-.96-.11-1.45.03-.5.14-.99.13-1.25-.43-.22-.47.08-1.21.59-1.47 1.11-.57 2.3-.9 3.57-.89z"/>
  <g>
    <path class="st1" d="M63.15 31.61V16.8h3.02v12.76h3.47v2.05h-6.49zM70.39 31.61V16.8h3v14.81h-3zM74.94 31.61V16.8h6.25v2.05h-3.24v4h2.74v2.1h-2.74v6.66h-3.01zM82 31.61V16.8h6.46v2.08h-3.44v3.93h2.65v2.1h-2.65v4.64h3.47v2.05H82zM67.28 55.43c-1.08 0-1.94-.2-2.58-.58-.63-.39-1.09-.95-1.36-1.67-.27-.73-.41-1.59-.41-2.61v-5.52c0-1.01.14-1.88.41-2.6.27-.72.73-1.27 1.36-1.65.63-.38 1.49-.57 2.58-.57 1.1 0 1.97.19 2.61.58.64.38 1.1.93 1.37 1.65.27.71.41 1.58.41 2.59v5.52c0 1.01-.14 1.88-.41 2.61-.27.73-.73 1.28-1.37 1.67-.65.38-1.51.58-2.61.58zm0-2.18c.39 0 .68-.09.86-.27.18-.18.3-.41.37-.71s.09-.62.09-.96v-7c0-.34-.03-.66-.09-.95-.06-.29-.18-.53-.37-.7-.18-.18-.47-.27-.86-.27-.37 0-.64.09-.82.27-.18.18-.31.41-.37.7s-.09.61-.09.95v7c0 .34.03.66.08.96s.17.54.36.71c.18.19.46.27.84.27zM72.97 55.23V40.42h2.1l3.29 7.72v-7.72h2.49v14.81h-2.01l-3.29-8.19v8.19h-2.58zM86.24 55.23V40.42h3.02v12.76h3.47v2.05h-6.49z"/>
    <path class="st1" d="M92.71 55.23l2.87-14.81h3.35l2.85 14.81h-2.8l-.53-3.25h-2.34l-.57 3.25h-2.83zm3.68-5.1h1.77l-.9-5.98-.87 5.98zM102.57 55.23V40.42h2.1l3.29 7.72v-7.72h2.49v14.81h-2.01l-3.29-8.19v8.19h-2.58zM111.99 55.23V40.42h3.62c1.25 0 2.23.16 2.93.48.7.32 1.2.83 1.49 1.52.29.69.44 1.57.44 2.64v5.39c0 1.1-.15 2-.44 2.71a2.88 2.88 0 01-1.47 1.56c-.69.34-1.65.5-2.88.5h-3.69zm3.01-2.1h.64c.56 0 .96-.09 1.2-.27.24-.18.39-.44.45-.79.06-.35.09-.78.09-1.29v-6.11c0-.51-.04-.92-.12-1.23s-.24-.54-.48-.69c-.24-.15-.62-.22-1.16-.22H115v10.6z"/>
  </g>
</svg>
