<?xml version="1.0" encoding="utf-8"?>
<svg version="1.1" id="Layer_1" xmlns="http://www.w3.org/2000/svg" x="0" y="0" viewBox="0 0 200 200" xml:space="preserve">
  <style>
    .st0{fill:#1c4468}.st1{fill:#fefefe}.st3{fill:#fff}
  </style>
  <path class="st0" d="M.09 199.39C.09 132.98.09 66.58.08.17c0-.5.11-.61.61-.61 66.41.01 132.83.01 199.24.01v198.95c0 .87 0 .87-.87.87H.09zm151.13-78.44c.02-1.7-.15-3.38-.47-5.03-2.27-11.73-12.31-20.51-24.27-21.2-.5-.03-.61-.25-.76-.62-5.54-14.51-22.42-21.1-36.27-14.11-6.07 3.06-10.32 7.83-12.79 14.17-.15.38-.32.53-.75.55-.88.04-1.77.14-2.64.29-5.83.98-10.84 3.56-14.87 7.89-5.93 6.37-8.2 13.93-6.81 22.49 1.05 6.44 4.27 11.72 9.29 15.88.32.27.39.48.28.89-1.03 3.88-1.2 7.8-.41 11.73 3.7 18.29 24.29 27.07 39.98 17.03.49-.31.79-.25 1.22.02 5.17 3.22 10.79 4.49 16.83 3.84 6.11-.66 11.41-3.16 15.66-7.56 6.8-7.04 9.05-15.43 6.85-24.98-.11-.47-.05-.74.33-1.06 6.26-5.29 9.43-12.05 9.6-20.22zM37.66 16.67c-2.73 0-5.46.01-8.19-.01-.46 0-.61.12-.6.59.03 1.46.04 2.93 0 4.39-.01.53.15.67.67.66 3.04-.02 6.08 0 9.12-.02.49 0 .59.1.47.58-.53 2.08-1.04 4.16-1.55 6.25-2.06 8.4-4.12 16.8-6.19 25.2-.12.49-.1.64.47.63 1.97-.04 3.95-.03 5.93 0 .47.01.63-.14.74-.6 2.41-10.02 4.84-20.04 7.25-30.07.25-1.03.63-2.04.66-3.11.04-1.31-.01-2.62.02-3.93.01-.48-.15-.59-.6-.59-2.74.04-5.47.03-8.2.03zm-20.41 7.69v.76c0 9.72 0 19.44-.01 29.16 0 .5.1.68.65.68 2.04-.03 4.08-.03 6.12 0 .45 0 .6-.09.6-.58-.01-12.38-.01-24.76 0-37.15 0-.43-.11-.57-.55-.56-1.58.03-3.15.01-4.73.01-.24 0-.46.01-.67.2-1.69 1.54-3.69 2.61-5.78 3.47-1 .41-1.28.93-1.21 1.94.09 1.33.02 2.67.02 4.08 1.91-.7 3.71-1.34 5.56-2.01z"/>
  <path class="st1" d="M.09 199.39h198.97c.87 0 .87 0 .87-.87V-.43c.04.03.14-.07.13.07-.01.18 0 .36 0 .53 0 66.25 0 132.5.01 198.75 0 .5-.11.61-.61.61-66.26-.01-132.52-.01-198.78-.02-.18.01-.44.16-.59-.12z"/>
  <path class="st1" d="M151.22 120.95c-.16 8.17-3.33 14.93-9.58 20.21-.38.32-.44.59-.33 1.06 2.2 9.55-.05 17.94-6.85 24.98-4.25 4.4-9.55 6.9-15.66 7.56-6.05.66-11.67-.62-16.83-3.84-.43-.27-.74-.33-1.22-.02-15.69 10.04-36.28 1.26-39.98-17.03-.79-3.93-.63-7.85.41-11.73.11-.41.05-.62-.28-.89-5.03-4.16-8.25-9.43-9.29-15.88-1.39-8.56.89-16.12 6.81-22.49 4.03-4.33 9.04-6.91 14.87-7.89.87-.15 1.76-.25 2.64-.29.43-.02.6-.17.75-.55 2.46-6.34 6.72-11.11 12.79-14.17 13.85-6.99 30.73-.41 36.27 14.11.14.37.26.59.76.62 11.95.69 22 9.47 24.27 21.2.3 1.66.47 3.34.45 5.04zm-30.9-25.87c-.03-.11-.05-.18-.07-.24-3.78-8.28-12.51-13.49-21.99-12.08-7.33 1.09-12.63 5.15-15.97 11.76-.24.46-.16.59.34.7 7.21 1.52 12.82 5.39 16.88 11.52.62.93 1.13 1.92 1.69 3.01 1.89-3.9 4.47-7.1 7.82-9.66 3.36-2.59 7.14-4.24 11.3-5.01zm-36.93 27.69c-.09-.12-.12-.15-.15-.18-6.1-5.95-8.86-13.15-8.16-21.66.07-.82.07-.82-.77-.68-.28.05-.57.09-.85.15-15.12 2.89-22.02 20.77-12.74 33.05.8 1.06 1.66 2.07 2.68 2.91 4.51-7.72 11.12-12.27 19.99-13.59zm13.6 44.18c-6.01-6.58-8.33-14.19-6.97-22.97-.23.11-.43.19-.62.29-7.53 3.72-15.14 3.88-22.83.52-.52-.23-.58-.01-.65.38-.51 3.15-.42 6.27.46 9.35 2.43 8.51 9.77 14.51 18.59 15.2 4.29.33 8.26-.64 12.02-2.77zm22.15-44.34c.95.18 1.8.31 2.64.51 7.45 1.82 13.09 6.08 16.96 12.69.18.3.24.6.67.18 6.32-5.97 8.29-15.47 4.7-23.42-3.19-7.06-8.73-11.14-16.36-12.42-.45-.08-.5.07-.46.48.59 5.83-.6 11.28-3.6 16.32-1.22 2.09-2.75 3.93-4.55 5.66zm-6.81 21.32c.03.21.04.3.06.38.4 2.42.54 4.85.26 7.29-.64 5.65-2.85 10.61-6.66 14.84-.27.3-.43.45.06.7 5.38 2.78 10.97 3.3 16.67 1.3 9.76-3.42 15.4-13.02 13.8-23.24-.08-.52-.2-.64-.73-.4-5.12 2.31-10.45 2.92-15.97 1.84-2.6-.5-5.06-1.41-7.49-2.71zm11.69-2.07c4.14-.03 7.22-.74 10.14-2.16.34-.17.46-.31.24-.69-4.09-7.22-10.27-11.02-18.56-11.23-3.16-.08-6.19.71-9.05 2.08-.45.21-.56.37-.29.86 4.06 7.15 10.25 10.78 17.52 11.14zm-29.07 6.76c-.01.69.05 1.38.12 2.06.48 4.85 2.45 9 5.79 12.54.39.41.59.32.92-.03 3.51-3.82 5.47-8.31 5.66-13.49.21-5.88-1.79-10.98-5.81-15.29-.38-.41-.6-.48-1.01-.02-3.69 4.04-5.57 8.78-5.67 14.23zm-8.39-20.63c-.51 0-1.02-.01-1.53 0-.29.01-.57.06-.86.1-7.15.95-12.46 4.61-16.04 10.85-.29.5-.14.64.3.85 3.88 1.81 7.93 2.5 12.17 1.8 6.83-1.14 11.87-4.81 15.27-10.81.23-.4.12-.54-.26-.73-2.86-1.37-5.86-2.11-9.05-2.06zm11.84-6.87c-.07-1.56-.14-2.94-.43-4.28-1.84-8.56-8.22-14.8-16.78-16.48-.57-.11-.68.08-.73.54-.22 1.77-.25 3.54.01 5.3.89 6 3.8 10.8 8.73 14.33 2.54 1.82 5.37 2.97 8.45 3.5.39.07.5-.01.52-.4.05-.9.16-1.8.23-2.51zm23.73-17.61c.01-.96-.11-1.9-.22-2.85-.05-.39-.21-.4-.52-.34-2.68.5-5.18 1.45-7.51 2.89-6.91 4.26-10.86 12.63-9.64 20.4.06.4.13.5.56.42 9.59-1.65 17.26-10.03 17.33-20.52z"/>
  <path d="M37.66 16.67c2.73 0 5.46.01 8.19-.01.46 0 .61.11.6.59-.03 1.31.02 2.62-.02 3.93-.03 1.07-.42 2.08-.66 3.11-2.41 10.02-4.84 20.04-7.25 30.07-.11.46-.27.6-.74.6-1.98-.03-3.95-.03-5.93 0-.57.01-.59-.15-.47-.63 2.08-8.4 4.13-16.8 6.19-25.2.51-2.08 1.01-4.17 1.55-6.25.12-.48.02-.58-.47-.58-3.04.02-6.08 0-9.12.02-.52 0-.68-.13-.67-.66.04-1.46.03-2.93 0-4.39-.01-.47.13-.6.6-.59 2.74 0 5.47-.01 8.2-.01z" fill="#fcfcfd"/>
  <path class="st1" d="M17.25 24.36c-1.86.67-3.66 1.32-5.55 2 0-1.4.07-2.74-.02-4.08-.07-1.01.21-1.53 1.21-1.94 2.08-.86 4.08-1.93 5.78-3.47.21-.19.43-.2.67-.2 1.58 0 3.15.02 4.73-.01.44-.01.55.13.55.56-.01 12.38-.01 24.76 0 37.15 0 .48-.15.58-.6.58-2.04-.02-4.08-.03-6.12 0-.55.01-.65-.17-.65-.68.01-9.72.01-19.44.01-29.16-.01-.23-.01-.47-.01-.75z"/>
  <path class="st0" d="M120.32 95.08c-4.16.78-7.94 2.43-11.31 5.01-3.34 2.56-5.92 5.76-7.82 9.66-.56-1.1-1.08-2.08-1.69-3.01-4.06-6.13-9.67-10-16.88-11.52-.5-.11-.58-.23-.34-.7 3.35-6.61 8.65-10.67 15.97-11.76 9.48-1.41 18.21 3.8 21.99 12.08.04.06.05.12.08.24zM83.39 122.77c-8.87 1.32-15.48 5.87-19.98 13.58-1.02-.84-1.88-1.85-2.68-2.91-9.28-12.28-2.38-30.16 12.74-33.05l.85-.15c.84-.14.84-.14.77.68-.7 8.51 2.06 15.71 8.16 21.66.03.04.05.08.14.19zM96.99 166.95c-3.76 2.12-7.73 3.1-12.01 2.77-8.82-.69-16.15-6.69-18.59-15.2-.88-3.08-.98-6.2-.46-9.35.06-.39.12-.61.65-.38 7.68 3.36 15.3 3.2 22.83-.52.19-.1.39-.18.62-.29-1.37 8.78.95 16.39 6.96 22.97zM119.14 122.61c1.8-1.74 3.33-3.58 4.56-5.64 3-5.04 4.2-10.48 3.6-16.32-.04-.41.01-.56.46-.48 7.63 1.28 13.17 5.35 16.36 12.42 3.59 7.94 1.62 17.44-4.7 23.42-.44.41-.5.12-.67-.18-3.87-6.61-9.51-10.87-16.96-12.69-.85-.22-1.7-.34-2.65-.53zM112.33 143.93c2.43 1.29 4.88 2.21 7.49 2.72 5.52 1.08 10.85.47 15.97-1.84.53-.24.65-.12.73.4 1.6 10.22-4.04 19.82-13.8 23.24-5.7 2-11.29 1.48-16.67-1.3-.49-.25-.33-.4-.06-.7 3.81-4.23 6.01-9.19 6.66-14.84.28-2.44.14-4.87-.26-7.29-.02-.09-.03-.17-.06-.39zM124.02 141.86c-7.28-.36-13.46-3.98-17.52-11.14-.27-.48-.16-.64.29-.86 2.86-1.37 5.89-2.16 9.05-2.08 8.29.21 14.47 4.01 18.56 11.23.22.38.1.52-.24.69-2.92 1.42-6 2.13-10.14 2.16zM94.95 148.62c.1-5.45 1.99-10.19 5.66-14.23.42-.46.63-.39 1.01.02 4.02 4.31 6.02 9.41 5.81 15.29-.19 5.18-2.15 9.67-5.66 13.49-.33.36-.53.45-.92.03-3.33-3.54-5.31-7.69-5.79-12.54-.07-.68-.13-1.36-.11-2.06zM86.56 127.99c3.18-.05 6.18.69 9.05 2.05.39.18.49.33.26.73-3.4 6-8.45 9.67-15.27 10.81-4.24.71-8.29.01-12.17-1.8-.44-.2-.59-.35-.3-.85 3.58-6.24 8.89-9.9 16.04-10.85.29-.04.57-.09.86-.1.51 0 1.02.01 1.53.01zM98.4 121.12c-.07.71-.17 1.62-.23 2.52-.03.38-.13.46-.52.4-3.08-.53-5.91-1.68-8.45-3.5-4.93-3.54-7.85-8.33-8.73-14.33-.26-1.76-.23-3.53-.01-5.3.06-.46.16-.66.73-.54 8.57 1.68 14.94 7.92 16.78 16.48.28 1.33.35 2.7.43 4.27zM122.13 103.51c-.07 10.49-7.74 18.87-17.33 20.52-.43.07-.5-.02-.56-.42-1.22-7.78 2.74-16.14 9.64-20.4 2.33-1.43 4.83-2.39 7.51-2.89.31-.06.48-.05.52.34.11.95.23 1.89.22 2.85z"/>
  <g>
    <path class="st3" d="M63.46 31.51V16.7h4.7c.89 0 1.62.17 2.18.5.56.34.98.82 1.25 1.45s.41 1.4.41 2.3c0 1.06-.18 1.89-.54 2.49-.36.6-.85 1.02-1.47 1.27s-1.33.37-2.14.37h-1.37v6.42h-3.02zm3.02-8.54h1.06c.44 0 .78-.07 1.01-.21s.4-.36.48-.67.13-.69.13-1.17c0-.45-.03-.83-.1-1.13-.07-.3-.22-.54-.45-.71-.23-.17-.6-.26-1.1-.26h-1.04v4.15zM72 31.51l2.87-14.81h3.35l2.85 14.81h-2.8l-.53-3.25H75.4l-.57 3.25H72zm3.68-5.1h1.77l-.9-5.98-.87 5.98zM81.75 31.51V16.7h3.84c1 0 1.86.11 2.57.34.71.23 1.26.62 1.65 1.2.38.57.58 1.37.58 2.38 0 .61-.05 1.15-.16 1.62s-.29.88-.55 1.23c-.26.35-.63.62-1.11.83l2.05 7.22h-3.09l-1.7-6.71h-1.06v6.71h-3.02zm3.01-8.5h.88c.49 0 .87-.08 1.15-.24.28-.16.48-.4.59-.72.12-.32.17-.72.17-1.2 0-.68-.12-1.2-.37-1.56-.25-.36-.72-.54-1.4-.54h-1.02v4.26zM92.97 31.51V18.95h-2.29V16.7h7.57v2.25H96v12.56h-3.03zM98.77 31.51V16.7h2.1l3.29 7.72V16.7h2.49v14.81h-2.01l-3.29-8.19v8.19h-2.58zM108.08 31.51V16.7h6.46v2.08h-3.44v3.93h2.65v2.1h-2.65v4.64h3.47v2.05h-6.49zM115.26 31.51V16.7h3.84c1 0 1.86.11 2.57.34s1.26.62 1.65 1.2c.38.57.58 1.37.58 2.38 0 .61-.05 1.15-.16 1.62s-.29.88-.55 1.23c-.26.35-.63.62-1.11.83l2.05 7.22h-3.09l-1.7-6.71h-1.06v6.71h-3.02zm3.02-8.5h.88c.49 0 .87-.08 1.15-.24.28-.16.48-.4.59-.72.12-.32.17-.72.17-1.2 0-.68-.13-1.2-.38-1.56-.25-.36-.72-.54-1.4-.54h-1.02v4.26zM128.94 31.71c-.91 0-1.68-.17-2.29-.5-.61-.33-1.07-.84-1.38-1.52-.31-.68-.49-1.54-.54-2.59l2.6-.44c.02.61.09 1.12.19 1.53.1.41.26.71.48.91.21.2.48.3.8.3.39 0 .65-.12.79-.37.14-.24.21-.52.21-.84 0-.62-.15-1.14-.45-1.56-.3-.42-.69-.84-1.18-1.27l-1.54-1.33c-.55-.46-1-.99-1.34-1.57-.35-.59-.52-1.3-.52-2.16 0-1.22.36-2.15 1.07-2.81.71-.65 1.69-.98 2.93-.98.74 0 1.35.12 1.83.37s.84.57 1.11.98c.26.41.45.85.55 1.33.1.48.17.96.19 1.44l-2.58.38c-.02-.45-.06-.85-.12-1.19-.06-.34-.17-.61-.33-.8-.17-.19-.41-.29-.74-.29-.35 0-.62.13-.79.39-.17.26-.26.55-.26.87 0 .52.12.95.36 1.29.24.34.56.69.98 1.05l1.5 1.32c.62.54 1.16 1.15 1.6 1.84.44.69.67 1.54.67 2.55 0 .69-.16 1.32-.48 1.88-.32.56-.76 1-1.33 1.32-.55.31-1.22.47-1.99.47zM133.55 31.51V16.7h3.02v6.09h2.62V16.7h3.02v14.81h-3.02v-6.56h-2.62v6.56h-3.02zM143.7 31.51V16.7h3v14.81h-3zM148.14 31.51V16.7h4.7c.89 0 1.62.17 2.18.5.56.34.98.82 1.25 1.45s.41 1.4.41 2.3c0 1.06-.18 1.89-.54 2.49s-.85 1.02-1.47 1.27-1.33.37-2.14.37h-1.37v6.42h-3.02zm3.02-8.54h1.06c.44 0 .78-.07 1.01-.21s.4-.36.48-.67.13-.69.13-1.17c0-.45-.03-.83-.1-1.13-.07-.3-.22-.54-.45-.71-.23-.17-.6-.26-1.1-.26h-1.04v4.15zM161.25 31.71c-.91 0-1.68-.17-2.29-.5-.61-.33-1.07-.84-1.38-1.52-.31-.68-.49-1.54-.54-2.59l2.6-.44c.02.61.09 1.12.19 1.53.1.41.26.71.48.91.21.2.48.3.8.3.39 0 .65-.12.79-.37.14-.24.21-.52.21-.84 0-.62-.15-1.14-.45-1.56-.3-.42-.69-.84-1.18-1.27l-1.54-1.33c-.55-.46-1-.99-1.34-1.57-.35-.59-.52-1.3-.52-2.16 0-1.22.36-2.15 1.07-2.81.71-.65 1.69-.98 2.93-.98.74 0 1.35.12 1.83.37s.84.57 1.11.98c.26.41.45.85.55 1.33.1.48.17.96.19 1.44l-2.58.38c-.02-.45-.06-.85-.12-1.19-.06-.34-.17-.61-.33-.8-.17-.19-.41-.29-.74-.29-.35 0-.62.13-.79.39-.17.26-.26.55-.26.87 0 .52.12.95.36 1.29.24.34.56.69.98 1.05l1.5 1.32c.62.54 1.16 1.15 1.6 1.84.44.69.67 1.54.67 2.55 0 .69-.16 1.32-.48 1.88-.32.56-.76 1-1.33 1.32-.55.31-1.22.47-1.99.47zM63.46 55.51V40.7h6.25v2.05h-3.24v4h2.74v2.1h-2.74v6.66h-3.01zM74.54 55.71c-1.08 0-1.94-.2-2.58-.58-.63-.39-1.09-.95-1.36-1.67-.27-.73-.41-1.59-.41-2.61v-5.52c0-1.01.14-1.88.41-2.6.27-.72.73-1.27 1.36-1.65.63-.38 1.49-.57 2.58-.57 1.1 0 1.97.19 2.61.58.64.38 1.1.93 1.37 1.65.27.71.41 1.58.41 2.59v5.52c0 1.01-.14 1.88-.41 2.61-.27.73-.73 1.28-1.37 1.67-.64.39-1.51.58-2.61.58zm0-2.18c.39 0 .68-.09.86-.27.18-.18.3-.41.37-.71s.09-.62.09-.96v-7c0-.34-.03-.66-.09-.95-.06-.29-.18-.53-.37-.7-.18-.18-.47-.27-.86-.27-.37 0-.64.09-.82.27-.18.18-.31.41-.37.7s-.09.61-.09.95v7c0 .34.03.66.08.96s.17.54.36.71c.18.19.46.27.84.27zM80.12 55.51V40.7h3.84c1 0 1.86.11 2.57.34.71.23 1.26.62 1.65 1.2.38.57.58 1.37.58 2.38 0 .61-.05 1.15-.16 1.62s-.29.88-.55 1.23c-.26.35-.63.62-1.11.83l2.05 7.22H85.9l-1.7-6.71h-1.06v6.71h-3.02zm3.02-8.5h.88c.49 0 .87-.08 1.15-.24.28-.16.48-.4.59-.72.12-.32.17-.72.17-1.2 0-.68-.12-1.2-.37-1.56-.25-.36-.72-.54-1.4-.54h-1.02v4.26zM95.1 55.51V42.95h-2.29V40.7h7.57v2.25h-2.25v12.56H95.1zM100.93 55.51V40.7h3.02v6.09h2.62V40.7h3.02v14.81h-3.02v-6.56h-2.62v6.56h-3.02zM111.04 55.51V40.7h6.46v2.08h-3.44v3.93h2.65v2.1h-2.65v4.64h3.47v2.05h-6.49zM125.76 55.73c-1 0-1.79-.21-2.38-.63-.58-.42-1-1.02-1.25-1.79s-.37-1.67-.37-2.7v-4.96c0-1.06.13-1.98.38-2.74.26-.77.7-1.36 1.34-1.77.64-.41 1.51-.62 2.61-.62 1.06 0 1.9.18 2.51.53.62.35 1.06.85 1.33 1.5s.4 1.41.4 2.3v.86h-2.94v-1.04c0-.39-.02-.73-.07-1.03s-.16-.53-.34-.7c-.18-.17-.46-.26-.85-.26-.4 0-.7.1-.88.31-.18.21-.3.47-.35.8-.05.32-.07.67-.07 1.03v6.56c0 .42.04.79.11 1.12.07.33.21.58.41.77.2.18.49.27.87.27s.67-.1.88-.29c.21-.19.35-.46.43-.8.08-.33.12-.72.12-1.14v-1.57h-1.44V47.9h4.17v7.61h-1.97l-.18-1.33c-.2.45-.49.82-.88 1.12-.41.28-.93.43-1.59.43zM135.74 55.71c-1.08 0-1.94-.2-2.58-.58-.63-.39-1.09-.95-1.36-1.67-.27-.73-.41-1.59-.41-2.61v-5.52c0-1.01.14-1.88.41-2.6s.73-1.27 1.36-1.65 1.49-.57 2.58-.57c1.1 0 1.97.19 2.61.58.64.38 1.1.93 1.37 1.65.27.71.41 1.58.41 2.59v5.52c0 1.01-.14 1.88-.41 2.61-.27.73-.73 1.28-1.37 1.67-.64.39-1.51.58-2.61.58zm0-2.18c.39 0 .68-.09.86-.27.18-.18.3-.41.37-.71.06-.3.09-.62.09-.96v-7c0-.34-.03-.66-.09-.95-.06-.29-.18-.53-.37-.7s-.47-.27-.86-.27c-.37 0-.64.09-.82.27-.18.18-.3.41-.37.7-.06.29-.09.61-.09.95v7c0 .34.03.66.08.96.06.3.17.54.36.71.18.19.47.27.84.27zM140.59 55.51l2.87-14.81h3.35l2.85 14.81h-2.8l-.53-3.25h-2.34l-.57 3.25h-2.83zm3.67-5.1h1.77l-.9-5.98-.87 5.98zM150.33 55.51V40.7h3.02v12.76h3.47v2.05h-6.49zM161.27 55.71c-.91 0-1.68-.17-2.29-.5-.61-.33-1.07-.84-1.38-1.52-.31-.68-.49-1.54-.54-2.59l2.6-.44c.02.61.09 1.12.19 1.53.1.41.26.71.48.91.21.2.48.3.8.3.39 0 .65-.12.79-.37.14-.24.21-.52.21-.84 0-.62-.15-1.14-.45-1.56-.3-.42-.69-.84-1.18-1.27l-1.54-1.33c-.55-.46-1-.99-1.34-1.57-.35-.59-.52-1.3-.52-2.16 0-1.22.36-2.15 1.07-2.81.71-.65 1.69-.98 2.93-.98.74 0 1.35.12 1.83.37s.84.57 1.11.98c.26.41.45.85.55 1.33.1.48.17.96.19 1.44l-2.58.38c-.02-.45-.06-.85-.12-1.19-.06-.34-.17-.61-.33-.8-.17-.19-.41-.29-.74-.29-.35 0-.62.13-.79.39-.17.26-.26.55-.26.87 0 .52.12.95.36 1.29.24.34.56.69.98 1.05l1.5 1.32c.62.54 1.16 1.15 1.6 1.84.44.69.67 1.54.67 2.55 0 .69-.16 1.32-.48 1.88-.32.56-.76 1-1.33 1.32-.55.31-1.22.47-1.99.47z"/>
  </g>
</svg>
