<?xml version="1.0" encoding="utf-8"?>
<svg version="1.1" id="Layer_1" xmlns="http://www.w3.org/2000/svg" x="0" y="0" viewBox="0 0 200 200" xml:space="preserve">
  <style>
    .st1{fill:#fefffe}.st2{fill:#fff}
  </style>
  <path d="M199.77 199.69c-66.41 0-132.81 0-199.22.01-.5 0-.61-.11-.61-.61.01-66.26.01-132.52 0-198.78 0-.5.11-.61.61-.61 66.41.01 132.81.01 199.22.01v199.98zM97.93 125.76c.22 1.25.41 2.31.59 3.38l3.12 18.29c1.05 6.14 2.11 12.28 3.16 18.41.08.46.17.92.25 1.38.2 1.27 1 2.1 2.13 2.19 1.18.1 2.13-.58 2.51-1.84 1.47-4.85 2.92-9.71 4.38-14.56 6.63-22.07 13.27-44.13 19.9-66.2.3-1.01.62-2.02.96-3.14l.24.48c3.25 6.74 6.49 13.48 9.74 20.22.68 1.4 1.95 1.94 3.21 1.36 1.29-.59 1.71-1.93 1.01-3.38-4.17-8.68-8.35-17.35-12.54-26.03-.17-.36-.39-.69-.71-.95-1.08-.9-3.19-.67-3.81 1.42-1.85 6.31-3.77 12.59-5.67 18.89-6.02 20.01-12.03 40.02-18.05 60.02-.09.29-.12.62-.38.94-.19-1.06-.36-2.04-.53-3.02-.99-5.81-1.98-11.62-2.98-17.43-1-5.85-2.02-11.71-3.02-17.56-.21-1.24-.86-2.06-1.85-2.26-1.17-.23-2.07.25-2.71 1.43-3.36 6.24-6.73 12.48-10.09 18.71-.12.22-.25.43-.46.82-.15-1.06-.26-1.91-.38-2.76-.69-4.81-1.39-9.61-2.08-14.42l-2.28-16c-.15-1.05-.94-1.8-1.99-1.95-1.14-.16-2.02.38-2.55 1.57-3.58 8.03-7.15 16.05-10.71 24.08-.23.52-.5.65-1.03.65-10.1-.01-20.2-.01-30.3-.01-1.53 0-2.56.96-2.55 2.36.01 1.36 1.05 2.31 2.54 2.31h32.37c1.18 0 1.96-.52 2.44-1.59 2.54-5.75 5.1-11.49 7.66-17.23.19-.42.39-.84.64-1.37.07.37.12.58.15.8.42 2.94.82 5.89 1.24 8.83l3.18 22.26c.16 1.15.87 1.97 1.87 2.16 1.1.21 2.05-.27 2.63-1.35 2.4-4.44 4.79-8.89 7.19-13.33 1.16-2.14 2.32-4.28 3.56-6.58zm44.86-11.16c-2.04.04-3.69.56-5.16 1.59-5.08 3.56-5.69 11.5-1.18 16.07 4.52 4.59 9.1 9.12 13.64 13.68.31.32.47.3.78-.01 4.55-4.59 9.14-9.14 13.68-13.74 3.84-3.89 3.97-10.64.35-14.69-2.94-3.29-7.16-3.78-10.75-1.25-1.18.83-2.29 1.76-3.27 2.82-.33.35-.5.31-.81-.02-1.05-1.08-2.15-2.12-3.41-2.97-1.24-.83-2.53-1.55-3.87-1.48zM31.37 34.98c2.36-1.18 3.59-2.56 4.23-4.91.7-2.54.66-5.1-.14-7.61-.94-2.99-3.01-4.83-6.01-5.67-1.71-.48-3.45-.52-5.21-.4-4.24.28-7.31 2.84-8.36 6.96-.42 1.66-.37 3.34-.4 5.03-.01.43.11.56.55.55 2.06-.02 4.13-.03 6.19 0 .51.01.56-.19.56-.62 0-1.37-.01-2.75.38-4.09.42-1.46 1.15-2.03 2.56-2.03 1.51 0 2.33.58 2.73 2.02.55 2.01.49 4.04-.09 6.04-.39 1.36-1.36 2.07-2.74 2.28-.57.09-1.15.15-1.72.09-.55-.06-.66.16-.65.67.04 1.2.01 2.4.01 3.6 0 1.04 0 1.04 1.06 1.12.29.02.57.05.86.08 1.84.19 2.81.99 3.25 2.8.54 2.21.52 4.44.02 6.66-.35 1.53-1.1 2.07-2.64 2.06-1.48-.01-2.3-.72-2.69-2.34-.31-1.26-.31-2.55-.33-3.84-.01-.39-.08-.55-.51-.54-2.11.02-4.22.02-6.33 0-.33 0-.46.07-.47.44-.01 1.91.06 3.82.57 5.68.95 3.51 3.05 5.84 6.74 6.53 1.6.3 3.22.35 4.84.17 3.66-.4 6.21-2.28 7.47-5.79 1.06-2.95 1.19-5.99.66-9.05-.44-2.69-1.74-4.78-4.39-5.89z" fill="#499a34"/>
  <path class="st1" d="M199.77 199.69V-.29c.04.03.14-.07.13.07-.01.18 0 .36 0 .53 0 66.26 0 132.52-.01 198.78 0 .2.16.45-.12.6zM97.93 125.76c-1.24 2.3-2.39 4.44-3.55 6.58-2.4 4.44-4.79 8.89-7.19 13.33-.58 1.08-1.53 1.56-2.63 1.35-1-.19-1.7-1.01-1.87-2.16l-3.18-22.26c-.42-2.94-.83-5.88-1.24-8.83-.03-.22-.08-.44-.15-.8-.25.54-.45.95-.64 1.37-2.56 5.74-5.11 11.49-7.66 17.23-.48 1.08-1.26 1.59-2.44 1.59-10.79-.01-21.58 0-32.37 0-1.49 0-2.53-.95-2.54-2.31-.01-1.4 1.03-2.36 2.55-2.36 10.1 0 20.2 0 30.3.01.53 0 .8-.13 1.03-.65 3.55-8.04 7.13-16.06 10.71-24.08.53-1.19 1.41-1.72 2.55-1.57 1.05.15 1.84.9 1.99 1.95.77 5.33 1.52 10.67 2.28 16 .69 4.81 1.39 9.61 2.08 14.42.12.85.24 1.7.38 2.76.22-.38.35-.6.46-.82 3.36-6.24 6.73-12.48 10.09-18.71.64-1.18 1.54-1.65 2.71-1.43.99.19 1.64 1.01 1.85 2.26 1 5.86 2.01 11.71 3.02 17.56 1 5.81 1.98 11.62 2.98 17.43.17.98.34 1.96.53 3.02.27-.32.3-.65.38-.94 6.02-20.01 12.04-40.02 18.05-60.02 1.89-6.29 3.81-12.58 5.67-18.89.61-2.09 2.72-2.32 3.81-1.42.32.26.54.59.71.95 4.18 8.67 8.36 17.35 12.54 26.03.7 1.45.27 2.79-1.01 3.38-1.27.58-2.54.05-3.21-1.36-3.25-6.74-6.49-13.48-9.74-20.22-.06-.12-.12-.23-.24-.48-.34 1.11-.66 2.12-.96 3.14-6.63 22.06-13.27 44.13-19.9 66.2-1.46 4.85-2.91 9.71-4.38 14.56-.38 1.26-1.33 1.93-2.51 1.84-1.13-.09-1.93-.92-2.13-2.19-.07-.46-.17-.92-.25-1.38-1.05-6.14-2.11-12.28-3.16-18.41l-3.12-18.29c-.19-1.07-.39-2.13-.6-3.38z"/>
  <path class="st1" d="M142.79 114.6c1.34-.08 2.63.65 3.87 1.49 1.25.85 2.36 1.88 3.41 2.97.31.32.48.37.81.02.98-1.06 2.09-1.99 3.27-2.82 3.59-2.53 7.8-2.04 10.75 1.25 3.62 4.05 3.49 10.8-.35 14.69-4.54 4.6-9.12 9.16-13.68 13.74-.3.31-.46.32-.78.01-4.54-4.57-9.12-9.1-13.64-13.68-4.5-4.57-3.89-12.51 1.18-16.07 1.48-1.04 3.12-1.56 5.16-1.6zM31.37 34.98c2.65 1.11 3.94 3.2 4.41 5.87.53 3.06.4 6.1-.66 9.05-1.26 3.52-3.81 5.39-7.47 5.79-1.61.18-3.23.13-4.84-.17-3.69-.69-5.78-3.02-6.74-6.53-.51-1.86-.58-3.76-.57-5.68 0-.37.14-.44.47-.44 2.11.01 4.22.02 6.33 0 .43 0 .51.16.51.54.02 1.29.02 2.58.33 3.84.39 1.61 1.21 2.32 2.69 2.34 1.55.02 2.3-.53 2.64-2.06.5-2.21.52-4.45-.02-6.66-.44-1.81-1.41-2.61-3.25-2.8-.29-.03-.57-.06-.86-.08-1.06-.08-1.06-.08-1.06-1.12 0-1.2.02-2.4-.01-3.6-.01-.51.1-.73.65-.67.57.06 1.15 0 1.72-.09 1.38-.21 2.35-.92 2.74-2.28.58-2 .64-4.03.09-6.04-.39-1.44-1.22-2.02-2.73-2.02-1.41 0-2.14.57-2.56 2.03-.39 1.34-.38 2.72-.38 4.09 0 .43-.05.63-.56.62-2.06-.03-4.13-.03-6.19 0-.44 0-.55-.12-.55-.55.02-1.69-.03-3.37.4-5.03 1.05-4.12 4.12-6.68 8.36-6.96 1.76-.12 3.5-.08 5.21.4 2.99.84 5.06 2.68 6.01 5.67.79 2.51.84 5.07.14 7.61-.66 2.37-1.89 3.75-4.25 4.93z"/>
  <g>
    <path class="st2" d="M55.7 31.85c-1 0-1.79-.21-2.38-.63-.58-.42-1-1.02-1.25-1.79s-.38-1.67-.38-2.7v-4.96c0-1.06.13-1.98.38-2.74.26-.77.7-1.36 1.34-1.77.64-.41 1.51-.62 2.61-.62 1.06 0 1.9.18 2.51.53.62.35 1.06.85 1.33 1.5s.4 1.41.4 2.3v.86h-2.94v-1.04c0-.39-.02-.73-.07-1.03-.05-.3-.16-.53-.34-.7-.18-.17-.46-.26-.85-.26-.4 0-.69.1-.88.31-.18.21-.3.47-.35.8-.05.32-.07.67-.07 1.03v6.56c0 .42.04.79.11 1.12s.21.58.41.77c.2.18.49.27.87.27s.67-.1.88-.29c.21-.19.35-.46.43-.8.08-.33.12-.72.12-1.14v-1.57h-1.44v-1.83h4.17v7.61h-1.98l-.18-1.33c-.2.45-.49.82-.88 1.12-.39.27-.92.42-1.57.42zM66.1 31.83c-1.08 0-1.94-.2-2.58-.58-.63-.39-1.09-.95-1.36-1.67-.27-.73-.41-1.59-.41-2.61v-5.52c0-1.01.14-1.88.41-2.6.27-.72.73-1.27 1.36-1.65.63-.38 1.49-.57 2.58-.57 1.1 0 1.97.19 2.61.58.64.38 1.1.93 1.37 1.65.27.71.41 1.58.41 2.59v5.52c0 1.01-.14 1.88-.41 2.61-.27.73-.73 1.28-1.37 1.67-.64.38-1.51.58-2.61.58zm0-2.18c.39 0 .68-.09.86-.27.18-.18.3-.41.37-.71s.09-.62.09-.96v-7c0-.34-.03-.66-.09-.95-.06-.29-.18-.53-.37-.7-.18-.18-.47-.27-.86-.27-.37 0-.64.09-.82.27-.18.18-.31.41-.37.7s-.09.61-.09.95v7c0 .34.03.66.08.96s.17.54.36.71c.18.18.46.27.84.27zM76.23 31.83c-1.08 0-1.94-.2-2.58-.58-.63-.39-1.09-.95-1.36-1.67-.27-.73-.41-1.59-.41-2.61v-5.52c0-1.01.14-1.88.41-2.6.27-.72.73-1.27 1.36-1.65.63-.38 1.49-.57 2.58-.57 1.1 0 1.97.19 2.61.58.64.38 1.1.93 1.37 1.65.27.71.41 1.58.41 2.59v5.52c0 1.01-.14 1.88-.41 2.61-.27.73-.73 1.28-1.37 1.67-.64.38-1.51.58-2.61.58zm0-2.18c.39 0 .68-.09.86-.27.18-.18.3-.41.37-.71s.09-.62.09-.96v-7c0-.34-.03-.66-.09-.95-.06-.29-.18-.53-.37-.7-.18-.18-.47-.27-.86-.27-.37 0-.64.09-.82.27-.18.18-.31.41-.37.7s-.09.61-.09.95v7c0 .34.03.66.08.96s.17.54.36.71c.18.18.46.27.84.27zM82.23 31.63V16.81h3.62c1.26 0 2.23.16 2.94.48.7.32 1.2.83 1.49 1.52.29.69.44 1.57.44 2.64v5.39c0 1.1-.15 2-.44 2.71a2.88 2.88 0 01-1.47 1.56c-.69.34-1.65.5-2.88.5h-3.7zm3.02-2.11h.64c.56 0 .96-.09 1.2-.27.24-.18.39-.44.45-.79.06-.35.09-.78.09-1.29v-6.11c0-.51-.04-.92-.12-1.23-.08-.31-.24-.54-.48-.69-.24-.15-.62-.22-1.16-.22h-.62v10.6zM96.51 31.63V16.81h3.02v6.09h2.62v-6.09h3.02v14.81h-3.02v-6.56h-2.62v6.56h-3.02zM107.04 31.63V16.81h6.46v2.08h-3.44v3.93h2.65v2.1h-2.65v4.64h3.47v2.05h-6.49zM113.92 31.63l2.87-14.81h3.35l2.85 14.81h-2.8l-.53-3.25h-2.34l-.57 3.25h-2.83zm3.67-5.11h1.77l-.9-5.98-.87 5.98zM124.08 31.63V16.81h3.02v12.76h3.47v2.05h-6.49zM132.99 31.63V19.06h-2.29v-2.25h7.57v2.25h-2.25v12.56h-3.03zM139.24 31.63V16.81h3.02v6.09h2.62v-6.09h3.02v14.81h-3.02v-6.56h-2.62v6.56h-3.02zM51.18 55.25l2.87-14.81h3.35l2.85 14.81h-2.8L56.92 52h-2.34l-.57 3.25h-2.83zm3.68-5.11h1.77l-.9-5.98-.87 5.98zM61.35 55.25V40.43h2.1l3.29 7.72v-7.72h2.49v14.81h-2.01l-3.29-8.19v8.19h-2.58zM71.07 55.25V40.43h3.62c1.26 0 2.23.16 2.94.48.7.32 1.2.83 1.49 1.52.29.69.44 1.57.44 2.64v5.39c0 1.1-.15 2-.44 2.71a2.88 2.88 0 01-1.47 1.56c-.69.34-1.65.5-2.88.5h-3.7zm3.02-2.11h.64c.56 0 .96-.09 1.2-.27.24-.18.39-.44.45-.79.06-.35.09-.78.09-1.29v-6.11c0-.51-.04-.92-.12-1.23-.08-.31-.24-.54-.48-.69-.24-.15-.62-.22-1.16-.22h-.62v10.6zM86.65 55.25l-1.92-14.81h2.56l1.02 9.05 1.3-9.03h2.03L93 49.47l1.02-9.03h2.52l-1.9 14.81h-2.56l-1.44-9.38-1.37 9.38h-2.62zM97.79 55.25V40.43h6.45v2.08h-3.44v3.93h2.65v2.1h-2.65v4.64h3.47v2.05h-6.48zM105.4 55.25V40.43h3.02V53.2h3.47v2.05h-6.49zM112.91 55.25V40.43h3.02V53.2h3.47v2.05h-6.49zM120.43 49.92v-1.81h4.59v1.81h-4.59zM126.83 55.25V40.43h3.75c.65 0 1.24.06 1.79.16.55.11 1.03.31 1.45.59.42.28.74.67.97 1.16.23.49.34 1.14.34 1.93 0 .6-.08 1.11-.26 1.53-.17.42-.42.75-.73 1-.32.24-.71.41-1.17.49.57.09 1.05.28 1.44.58.39.3.68.71.88 1.21.19.5.29 1.1.29 1.81 0 .74-.09 1.39-.28 1.94-.19.55-.47 1-.83 1.35-.37.35-.82.62-1.35.8-.54.18-1.16.27-1.86.27h-4.43zm3.01-8.84h.75c.52 0 .92-.08 1.19-.23.27-.15.45-.38.56-.69.1-.31.16-.69.16-1.14 0-.45-.08-.81-.23-1.09s-.38-.47-.7-.59c-.31-.12-.7-.18-1.18-.18h-.55v3.92zm0 6.71h.84c.76 0 1.28-.19 1.56-.57s.43-.94.43-1.7c0-.58-.07-1.05-.2-1.4-.13-.35-.35-.6-.65-.77-.3-.16-.7-.25-1.2-.25h-.79v4.69zM136.92 55.25V40.43h6.46v2.08h-3.44v3.93h2.65v2.1h-2.65v4.64h3.47v2.05h-6.49zM144.56 55.25V40.43h3v14.81h-3zM149.43 55.25V40.43h2.1l3.29 7.72v-7.72h2.49v14.81h-2.01l-3.29-8.19v8.19h-2.58zM162.94 55.46c-1 0-1.79-.21-2.38-.63-.58-.42-1-1.02-1.25-1.79s-.37-1.67-.37-2.7v-4.96c0-1.06.13-1.98.38-2.74.26-.77.7-1.36 1.34-1.77.64-.41 1.51-.62 2.61-.62 1.06 0 1.9.18 2.51.53.62.35 1.06.85 1.33 1.5s.4 1.41.4 2.3v.86h-2.94V44.4c0-.39-.02-.73-.07-1.03s-.16-.53-.34-.7c-.18-.17-.46-.26-.85-.26-.4 0-.7.1-.88.31-.18.21-.3.47-.35.8-.05.32-.07.67-.07 1.03v6.56c0 .42.04.79.11 1.12.07.33.21.58.41.77.2.18.49.27.87.27s.67-.1.88-.29c.21-.19.35-.46.43-.8.08-.33.12-.72.12-1.14v-1.57h-1.44v-1.83h4.17v7.61h-1.97l-.18-1.33c-.2.45-.49.82-.88 1.12-.41.28-.93.42-1.59.42z"/>
  </g>
</svg>
