<svg width="1440" height="466" xmlns="http://www.w3.org/2000/svg"><defs><linearGradient x1="83.444%" y1="46.086%" x2="18.202%" y2="50.995%" id="a"><stop stop-opacity=".773" offset=".895%"/><stop stop-opacity=".827" offset="100%"/></linearGradient></defs><path d="M0 0h1440v466H0V0zm376.086 41.457c.85-.297 1.322-.457 1.322-.457-42.855 0-77.923 12.4-105.017 37.728C248.13 101.577 236 128.587 236 159.76c0 23.203 7.969 42.332 23.906 57.387 17.177 16.295 42.146 30.818 74.906 43.571l53.125 20.723c23.553 9.033 41.97 18.952 55.25 29.756 14.344 11.69 21.516 26.48 21.516 44.368 0 16.65-6.11 30.288-18.328 40.915-10.802 9.564-25.057 14.347-42.766 14.347-17.885 0-34.088-3.72-48.609-11.159C340.125 392.052 378.375 418 408.656 418c40.021 0 72.604-12.398 97.75-37.195 11.157-11.159 19.878-24.044 26.164-38.656 6.287-14.613 9.43-29.446 9.43-44.502 0-25.86-8.943-47.822-26.828-65.888-14.167-14.17-34.974-26.568-62.422-37.195l-50.734-19.394c-31.167-11.868-53.657-23.203-67.47-34.007-12.572-9.92-18.858-23.469-18.858-40.65 0-16.117 5.666-29.047 17-38.788 7.737-6.805 29.197-15.12 39.312-18.806v106.203c42.747 20.631 64.021 24.099 107.195 42.878V46.766c22.698 3.893 45.928 15.042 69.69 33.446 26.068 21.235 44.244 45.037 54.53 71.404H609L594.37 25c-9.043 7.786-18.176 12.476-27.397 14.068-10.285 1.416-25.979 2.212-47.08 2.39H376.085z" fill="url(#a)" fill-rule="evenodd"/></svg>