<?xml version="1.0" encoding="utf-8"?>
<svg xmlns="http://www.w3.org/2000/svg" id="wheel-logo" viewBox="0 0 200 200">
  <path d="M55.42 129.52c-.13.54-.58.71-.91.97-7.73 5.88-15.47 11.76-23.21 17.64-2.72 2.07-5.46 4.11-8.15 6.21-.64.5-.93.5-1.42-.2-5.32-7.66-9.42-15.93-12.4-24.76-.34-1 .18-1.08.89-1.28 12.22-3.5 24.44-7.01 36.66-10.52 2.22-.64 2.23-.65 3.08 1.52 1.33 3.39 2.99 6.62 4.97 9.68.17.24.33.5.49.74z" fill="#cf8d2b"/>
  <path d="M4.77 99.65c0-1.77.02-3.55-.01-5.32-.01-.7.1-1.03.96-.95 10.07.94 20.14 1.85 30.21 2.76 3.14.28 6.27.59 9.41.82.77.06 1.04.2 1 1.07-.16 4.09.13 8.16 1.04 12.16.23 1.03-.33 1.16-1.07 1.37-10.95 3.13-21.89 6.27-32.83 9.41-1.66.48-3.34.88-4.98 1.43-.85.29-1.15.11-1.35-.75-1.31-5.76-2.19-11.59-2.43-17.5-.06-1.51-.01-3.01-.01-4.52.03.02.05.02.06.02z" fill="#49783f"/>
  <path d="M87.76 152.66c-.76 4.08-1.55 8.26-2.33 12.45-1.65 8.8-3.32 17.6-4.95 26.4-.18.98-.34 1.5-1.62 1.19-8.81-2.11-17.19-5.28-25.13-9.64-.88-.48-.95-.82-.42-1.66 6.91-11.11 13.8-22.24 20.65-33.39.54-.87.9-.99 1.82-.5 3.5 1.85 7.2 3.21 11.03 4.19 1.01.25 1 .26.95.96z" fill="#e01883"/>
  <path d="M46.17 91.07c-4.13-.37-8.38-.74-12.62-1.12-8.44-.76-16.88-1.54-25.32-2.26-2.87-.25-2.88-.18-2.44-3.02 1.31-8.51 3.81-16.66 7.34-24.51.35-.79.59-1.03 1.5-.57 11.72 5.89 23.47 11.73 35.23 17.56.8.39 1.11.67.68 1.64-1.63 3.66-2.75 7.48-3.41 11.44-.08.5-.11 1.03-.96.84z" fill="#067ebc"/>
  <path d="M105.03 194.91c-7.11.17-12.55 0-17.97-.78-.77-.11-1.05-.23-.88-1.12 2.48-13.02 4.93-26.04 7.36-39.07.13-.67.32-1 1.1-.91 4.03.48 8.07.39 12.08-.12.97-.12 1.16.18 1.32 1.03 2.07 11.11 4.18 22.21 6.28 33.32.32 1.7.56 3.42.98 5.09.3 1.18-.08 1.54-1.2 1.67-3.55.42-7.11.88-9.07.89z" fill="#ed6e2a"/>
  <path d="M137.51 11.84c.34.15.59.25.83.36 8.46 3.72 16.21 8.57 23.29 14.52.74.63.46.89-.01 1.41-5.49 5.98-10.97 11.97-16.45 17.95-3.41 3.73-6.84 7.45-10.22 11.21-.6.66-.95.75-1.68.15-3.06-2.52-6.41-4.6-10.01-6.27-.83-.38-.84-.76-.56-1.5 4.75-12.27 9.47-24.54 14.2-36.82.16-.37.19-.84.61-1.01z" fill="#d19f29"/>
  <path d="M69.47 144c-.12.19-.25.42-.39.64-6.97 11.28-13.95 22.56-20.89 33.86-.45.73-.75.71-1.41.26a99.064 99.064 0 01-20.09-18.15c-.65-.77-.59-1.12.22-1.73 10.48-7.92 20.94-15.87 31.37-23.85.72-.55 1.06-.45 1.6.17 2.65 3.07 5.68 5.74 8.96 8.11.24.18.58.27.63.69z" fill="#f59b29"/>
  <path d="M62.19 61.37c-.19.23-.33.45-.51.63a52.195 52.195 0 00-7.5 9.64c-.37.62-.66.74-1.34.4-11.85-5.93-23.71-11.83-35.59-17.71-.85-.42-.82-.78-.4-1.5 4.53-7.95 10.03-15.15 16.6-21.54.57-.55.84-.63 1.42.01 8.88 9.79 17.8 19.55 26.7 29.32.21.23.39.48.62.75z" fill="#63b449"/>
  <path d="M174.78 158.85c-.17.23-.34.48-.54.72-5.74 7.08-12.36 13.2-19.8 18.45-.76.54-1.13.6-1.69-.32-6.86-11.19-13.76-22.36-20.69-33.5-.53-.85-.43-1.19.35-1.76 3.18-2.3 5.97-5.04 8.51-8.02.58-.68.92-.66 1.59-.15 10.54 7.98 21.11 15.93 31.66 23.89.23.17.55.29.61.69z" fill="#fab61b"/>
  <path d="M97.5 25.16c0 6.48-.02 12.97.02 19.45.01 1.03-.27 1.36-1.3 1.41-3.91.19-7.74.92-11.49 2.07-.76.23-1 .01-1.25-.64-4.78-12.38-9.58-24.77-14.4-37.15-.28-.72-.1-.98.59-1.21 8.64-2.86 17.5-4.49 26.6-4.88.97-.04 1.27.19 1.27 1.22-.06 6.58-.04 13.16-.04 19.73z" fill="#1d3766"/>
  <path d="M121.89 192.48c-.75.13-.6-.48-.67-.86-.96-5.01-1.92-10.01-2.86-15.02-1.49-7.88-2.97-15.77-4.49-23.65-.19-1-.06-1.46 1.04-1.75 3.74-.98 7.29-2.48 10.68-4.35.71-.39 1.01-.31 1.43.38 6.92 11.26 13.87 22.49 20.82 33.73.32.52.6.88-.2 1.35a96.672 96.672 0 01-25.35 10.11c-.13.03-.27.04-.4.06z" fill="#8e1939"/>
  <path d="M147.14 73.01c-.4.09-.51-.18-.65-.4-2.12-3.61-4.59-6.96-7.52-9.97-.6-.62-.12-.9.23-1.28 5.97-6.51 11.93-13.02 17.9-19.53 2.97-3.24 5.96-6.46 8.9-9.73.56-.62.82-.62 1.41-.04 6.45 6.44 11.86 13.65 16.29 21.62.4.72.31.99-.42 1.36-11.87 5.89-23.73 11.8-35.59 17.71-.19.09-.39.18-.55.26z" fill="#279b48"/>
  <path d="M153.96 91.63c-.71.19-.81-.27-.88-.72-.63-4.05-1.75-7.96-3.34-11.73-.44-1.04.4-1.02.84-1.24 11.09-5.56 22.2-11.09 33.3-16.63 3-1.49 3-1.5 4.26 1.55 3.1 7.49 5.24 15.25 6.4 23.27.25 1.71.24 1.67-1.56 1.84-8.08.75-16.17 1.53-24.25 2.29-4.94.46-9.89.92-14.77 1.37z" fill="#c31f33"/>
  <path d="M103.45 25c0-6.53.01-13.06-.01-19.59 0-.73-.02-1.22 1.02-1.17 9.05.47 17.87 2.11 26.45 5.03.74.25.82.52.55 1.23-4.78 12.36-9.53 24.72-14.26 37.1-.27.7-.5.93-1.32.67-3.69-1.18-7.46-1.97-11.34-2.19-1-.06-1.11-.51-1.11-1.34.04-6.58.02-13.16.02-19.74z" fill="#e62531"/>
  <path d="M195.35 100.16c.13 7.18-.8 14.24-2.37 21.23-.19.85-.38 1.24-1.45.92-12.63-3.68-25.28-7.3-37.93-10.91-.78-.22-1.06-.5-.87-1.36.81-3.74 1.15-7.54 1.05-11.37-.02-.87.24-1.08 1.09-1.16 11.79-1.09 23.58-2.23 35.37-3.35 1.37-.13 2.74-.21 4.11-.36.74-.08 1.04.11 1.02.91-.05 1.81-.02 3.63-.02 5.45z" fill="#e8422e"/>
  <path d="M78.16 50.12c.11.5-.31.52-.55.63-3.67 1.71-7.13 3.78-10.31 6.28-.67.52-.92.09-1.27-.3-4.66-5.11-9.33-10.22-13.99-15.34-4.21-4.62-8.41-9.27-12.65-13.87-.61-.66-.74-.98.04-1.62 6.98-5.7 14.58-10.37 22.85-13.97.77-.34 1.06-.2 1.34.55 4.77 12.35 9.55 24.7 14.33 37.04.08.22.15.43.21.6z" fill="#04568b"/>
  <path d="M151.26 116.86c.39.11.73.22 1.07.31 12.52 3.59 25.04 7.2 37.58 10.76.95.27 1.12.57.81 1.53-2.79 8.39-6.68 16.22-11.59 23.56-.53.8-.87.83-1.61.26a8092.82 8092.82 0 00-31.47-23.74c-.72-.54-.83-.9-.33-1.68 2.02-3.14 3.61-6.51 4.9-10.01.12-.37.08-.92.64-.99z" fill="#0caed9"/>
</svg>
